[Header]
FileType HTR
DataType HTRS
FileVersion 1
NumSegments 64
NumFrames 3
DataFrameRate 24
EulerRotationOrder ZYX
CalibrationUnits mm
RotationUnits Degrees
GlobalAxisofGravity Y
BoneLengthAxis Y
ScaleFactor 1.0
[SegmentNames&Hierarchy]
Hips	GLOBAL
Spine	Hips
Spine1	Spine
Spine2	Spine1
Neck	Spine2
Head	Neck
LeftEye	Head
RightEye	Head
LeftShoulder	Spine2
LeftArm	LeftShoulder
LeftForeArm	LeftArm
LeftHand	LeftForeArm
LeftHandThumb1	LeftHand
LeftHandThumb2	LeftHandThumb1
LeftHandThumb3	LeftHandThumb2
LeftHandThumb4	LeftHandThumb3
LeftHandIndex1	LeftHand
LeftHandIndex2	LeftHandIndex1
LeftHandIndex3	LeftHandIndex2
LeftHandIndex4	LeftHandIndex3
LeftHandMiddle1	LeftHand
LeftHandMiddle2	LeftHandMiddle1
LeftHandMiddle3	LeftHandMiddle2
LeftHandMiddle4	LeftHandMiddle3
LeftHandRing1	LeftHand
LeftHandRing2	LeftHandRing1
LeftHandRing3	LeftHandRing2
LeftHandRing4	LeftHandRing3
LeftHandPinky1	LeftHand
LeftHandPinky2	LeftHandPinky1
LeftHandPinky3	LeftHandPinky2
LeftHandPinky4	LeftHandPinky3
RightShoulder	Spine2
RightArm	RightShoulder
RightForeArm	RightArm
RightHand	RightForeArm
RightHandPinky1	RightHand
RightHandPinky2	RightHandPinky1
RightHandPinky3	RightHandPinky2
RightHandPinky4	RightHandPinky3
RightHandRing1	RightHand
RightHandRing2	RightHandRing1
RightHandRing3	RightHandRing2
RightHandRing4	RightHandRing3
RightHandMiddle1	RightHand
RightHandMiddle2	RightHandMiddle1
RightHandMiddle3	RightHandMiddle2
RightHandMiddle4	RightHandMiddle3
RightHandIndex1	RightHand
RightHandIndex2	RightHandIndex1
RightHandIndex3	RightHandIndex2
RightHandIndex4	RightHandIndex3
RightHandThumb1	RightHand
RightHandThumb2	RightHandThumb1
RightHandThumb3	RightHandThumb2
RightHandThumb4	RightHandThumb3
LeftUpLeg	Hips
LeftLeg	LeftUpLeg
LeftFoot	LeftLeg
LeftToeBase	LeftFoot
RightUpLeg	Hips
RightLeg	RightUpLeg
RightFoot	RightLeg
RightToeBase	RightFoot
[BasePosition]
Hips	0	0	0	0	0	0	1
Spine	0	0	0	0	0	0	1
Spine1	0	0	0	0	0	0	1
Spine2	0	0	0	0	0	0	1
Neck	0	0	0	0	0	0	1
Head	0	0	0	0	0	0	1
LeftEye	0	0	0	0	0	0	1
RightEye	0	0	0	0	0	0	1
LeftShoulder	0	0	0	0	0	0	1
LeftArm	0	0	0	0	0	0	1
LeftForeArm	0	0	0	0	0	0	1
LeftHand	0	0	0	0	0	0	1
LeftHandThumb1	0	0	0	0	0	0	1
LeftHandThumb2	0	0	0	0	0	0	1
LeftHandThumb3	0	0	0	0	0	0	1
LeftHandThumb4	0	0	0	0	0	0	1
LeftHandIndex1	0	0	0	0	0	0	1
LeftHandIndex2	0	0	0	0	0	0	1
LeftHandIndex3	0	0	0	0	0	0	1
LeftHandIndex4	0	0	0	0	0	0	1
LeftHandMiddle1	0	0	0	0	0	0	1
LeftHandMiddle2	0	0	0	0	0	0	1
LeftHandMiddle3	0	0	0	0	0	0	1
LeftHandMiddle4	0	0	0	0	0	0	1
LeftHandRing1	0	0	0	0	0	0	1
LeftHandRing2	0	0	0	0	0	0	1
LeftHandRing3	0	0	0	0	0	0	1
LeftHandRing4	0	0	0	0	0	0	1
LeftHandPinky1	0	0	0	0	0	0	1
LeftHandPinky2	0	0	0	0	0	0	1
LeftHandPinky3	0	0	0	0	0	0	1
LeftHandPinky4	0	0	0	0	0	0	1
RightShoulder	0	0	0	0	0	0	1
RightArm	0	0	0	0	0	0	1
RightForeArm	0	0	0	0	0	0	1
RightHand	0	0	0	0	0	0	1
RightHandPinky1	0	0	0	0	0	0	1
RightHandPinky2	0	0	0	0	0	0	1
RightHandPinky3	0	0	0	0	0	0	1
RightHandPinky4	0	0	0	0	0	0	1
RightHandRing1	0	0	0	0	0	0	1
RightHandRing2	0	0	0	0	0	0	1
RightHandRing3	0	0	0	0	0	0	1
RightHandRing4	0	0	0	0	0	0	1
RightHandMiddle1	0	0	0	0	0	0	1
RightHandMiddle2	0	0	0	0	0	0	1
RightHandMiddle3	0	0	0	0	0	0	1
RightHandMiddle4	0	0	0	0	0	0	1
RightHandIndex1	0	0	0	0	0	0	1
RightHandIndex2	0	0	0	0	0	0	1
RightHandIndex3	0	0	0	0	0	0	1
RightHandIndex4	0	0	0	0	0	0	1
RightHandThumb1	0	0	0	0	0	0	1
RightHandThumb2	0	0	0	0	0	0	1
RightHandThumb3	0	0	0	0	0	0	1
RightHandThumb4	0	0	0	0	0	0	1
LeftUpLeg	0	0	0	0	0	0	1
LeftLeg	0	0	0	0	0	0	1
LeftFoot	0	0	0	0	0	0	1
LeftToeBase	0	0	0	0	0	0	1
RightUpLeg	0	0	0	0	0	0	1
RightLeg	0	0	0	0	0	0	1
RightFoot	0	0	0	0	0	0	1
RightToeBase	0	0	0	0	0	0	1
[Hips]
21	1685.530884	978.855896	-5.90307188	-63.71299362	84.72582245	-63.96735001	1.0
22	1762.058838	993.9372559	-2.908285618	-65.90822601	83.81871796	-66.51457977	1.0
23	1834.107422	1011.021484	-3.438156128	-72.86087036	83.77309418	-74.2625885	1.0
[Spine]
21	0	101.8159943	1.315000057	3.861848593	-13.1938076	4.008960247	1.0
22	0	101.8159943	1.315000057	4.075169563	-12.66658688	4.465960503	1.0
23	0	101.8159943	1.315000057	3.942857027	-11.83132458	4.502269745	1.0
[Spine1]
21	0	100.8349991	-10.00800037	1.300351858	-17.21809387	2.204341888	1.0
22	0	100.8349991	-10.00800037	1.333256721	-17.03915977	2.27705121	1.0
23	0	100.8349991	-10.00800037	1.221495748	-16.79875755	2.231056929	1.0
[Spine2]
21	0	91	-13.73399925	1.036732793	-17.18681145	2.562094688	1.0
22	0	91	-13.73399925	1.066895485	-17.00901031	2.638322115	1.0
23	0	91	-13.73399925	0.9555410743	-16.76720238	2.595896006	1.0
[Neck]
21	0	166.7169952	-25.16200066	2.889596939	-4.725041389	-0.08209662139	1.0
22	0	166.7169952	-25.16200066	3.08031106	-4.972186089	0.4511184692	1.0
23	0	166.7169952	-25.16200066	3.41434741	-5.373151302	0.8714924455	1.0
[Head]
21	0	96.17900085	16.84999847	-15.29036808	-34.94722366	9.176354408	1.0
22	0	96.17900085	16.84999847	-15.25328922	-35.43358231	9.74401474	1.0
23	0	96.17900085	16.84999847	-14.77241325	-36.80560303	10.3187933	1.0
[LeftEye]
21	30.6760006	64.09500122	92.83599854	0	0	0	1.0
22	30.6760006	64.09500122	92.83599854	0	0	0	1.0
23	30.6760006	64.09500122	92.83599854	0	0	0	1.0
[RightEye]
21	-30.6760006	64.09500122	92.83499908	0	0	0	1.0
22	-30.6760006	64.09500122	92.83499908	0	0	0	1.0
23	-30.6760006	64.09500122	92.83499908	0	0	0	1.0
[LeftShoulder]
21	45.70400238	109.4599991	-26.28000069	6.72860527	-22.09092331	-15.63107204	1.0
22	45.70400238	109.4599991	-26.28000069	6.460422516	-21.49662209	-14.82043839	1.0
23	45.70400238	109.4599991	-26.28000069	6.37938261	-21.34466934	-14.54636097	1.0
[LeftArm]
21	105.923996	-5.24600029	-22.32099915	5.685564995	-12.79993629	-49.74068832	1.0
22	105.923996	-5.24600029	-22.32099915	4.37340641	-9.322084427	-55.67126083	1.0
23	105.923996	-5.24600029	-22.32099915	4.885079861	-5.64909029	-60.87345505	1.0
[LeftForeArm]
21	278.414978	-0.0009999999311	0	-2.880032639e-07	-32.2392807	-0.0002170121734	1.0
22	278.414978	-0.0009999999311	0	3.269771696e-06	-29.27880478	-0.0002353579475	1.0
23	278.414978	-0.0009999999311	0	-3.465318969e-06	-21.91452599	-0.0001860026969	1.0
[LeftHand]
21	283.2879944	0	0	16.41126633	-24.16899109	4.644383907	1.0
22	283.2879944	0	0	11.66050529	-27.85066223	14.28979206	1.0
23	283.2879944	0	0	9.001846313	-28.9512558	17.61659622	1.0
[LeftHandThumb1]
21	24.6609993	-15.75	26.8239994	7.510399818	1.331808686	0.9777017832	1.0
22	24.6609993	-15.75	26.8239994	7.386869907	1.038223267	0.8381994963	1.0
23	24.6609993	-15.75	26.8239994	7.33031702	0.9030608535	0.7741626501	1.0
[LeftHandThumb2]
21	32.29800034	-18.64699936	18.64699936	3.716195345	19.57847404	9.438793182	1.0
22	32.29800034	-18.64699936	18.64699936	3.760200739	19.18967819	9.621970177	1.0
23	32.29800034	-18.64699936	18.64699936	4.032980442	18.34336662	10.991992	1.0
[LeftHandThumb3]
21	26.52600098	-15.31499958	15.31499958	3.604209423	14.45033932	0.5628862977	1.0
22	26.52600098	-15.31499958	15.31499958	3.310706377	13.74269104	0.5734437108	1.0
23	26.52600098	-15.31499958	15.31499958	3.028374434	12.62879086	0.844322741	1.0
[LeftHandThumb4]
21	19.54599953	-11.28499985	11.28499985	0	0	0	1.0
22	19.54599953	-11.28499985	11.28499985	0	0	0	1.0
23	19.54599953	-11.28499985	11.28499985	0	0	0	1.0
[LeftHandIndex1]
21	91.09299469	-5.170999527	22.60099792	-1.724182487	2.486830711	-22.38880539	1.0
22	91.09299469	-5.170999527	22.60099792	-1.529360294	2.475745916	-20.61215973	1.0
23	91.09299469	-5.170999527	22.60099792	-1.031855345	2.307056665	-16.47790718	1.0
[LeftHandIndex2]
21	36.76399994	0	0	-0.1796547621	1.694983125	-9.097662926	1.0
22	36.76399994	0	0	-0.1655276269	1.647785664	-8.613491058	1.0
23	36.76399994	0	0	-0.1586968154	1.624364734	-8.374000549	1.0
[LeftHandIndex3]
21	28.83100128	0	0	-0.1098146737	0.8059675694	-10.17490196	1.0
22	28.83100128	0	0	-0.1014258787	0.7580115795	-9.690879822	1.0
23	28.83100128	0	0	-0.09740904719	0.7342885137	-9.451488495	1.0
[LeftHandIndex4]
21	23.92700005	0	0	0	0	0	1.0
22	23.92700005	0	0	0	0	0	1.0
23	23.92700005	0	0	0	0	0	1.0
[LeftHandMiddle1]
21	95.33399963	0	0	-3.867794991	6.058712006	-34.26173019	1.0
22	95.33399963	0	0	-3.686969757	6.360440731	-32.90544128	1.0
23	95.33399963	0	0	-3.292710781	6.806363583	-29.94649124	1.0
[LeftHandMiddle2]
21	36.98199844	0	0	-0.4980704784	2.476198196	-17.19481659	1.0
22	36.98199844	0	0	-0.4721479416	2.423421144	-16.61444855	1.0
23	36.98199844	0	0	-0.4499593675	2.377165794	-16.10782433	1.0
[LeftHandMiddle3]
21	29.50900078	0	0	-0.132298097	1.413227201	-11.51792622	1.0
22	29.50900078	0	0	-0.1199862286	1.356938004	-10.93893147	1.0
23	29.50900078	0	0	-0.1097220257	1.307785988	-10.43440533	1.0
[LeftHandMiddle4]
21	28.3390007	0	0	0	0	0	1.0
22	28.3390007	0	0	0	0	0	1.0
23	28.3390007	0	0	0	0	0	1.0
[LeftHandRing1]
21	91.04499817	-0.4390000105	-18.65100098	-5.179220676	12.05192947	-42.63593674	1.0
22	91.04499817	-0.4390000105	-18.65100098	-5.023991108	12.2601223	-41.44928741	1.0
23	91.04499817	-0.4390000105	-18.65100098	-4.677730083	12.69408417	-38.80785751	1.0
[LeftHandRing2]
21	31.54000092	0	0	-0.2702718973	2.312386751	-20.1562252	1.0
22	31.54000092	0	0	-0.2506344914	2.250642776	-19.50249481	1.0
23	31.54000092	0	0	-0.2359396815	2.202707767	-18.99660492	1.0
[LeftHandRing3]
21	29.37700081	0	0	-0.03370174393	1.635463476	-16.58243752	1.0
22	29.37700081	0	0	-0.0217502173	1.571731091	-15.9312048	1.0
23	29.37700081	0	0	-0.01299628429	1.522360086	-15.42751598	1.0
[LeftHandRing4]
21	26.47500038	0	0	0	0	0	1.0
22	26.47500038	0	0	0	0	0	1.0
23	26.47500038	0	0	0	0	0	1.0
[LeftHandPinky1]
21	80.77799988	-4.887000084	-38.06099701	-6.805127144	14.74724865	-48.39544678	1.0
22	80.77799988	-4.887000084	-38.06099701	-6.642665386	15.12610245	-47.39874268	1.0
23	80.77799988	-4.887000084	-38.06099701	-6.338143826	15.59782696	-45.16204071	1.0
[LeftHandPinky2]
21	36	0	0	-0.7784094214	2.40754962	-27.24671173	1.0
22	36	0	0	-0.7552970052	2.367818832	-26.78666306	1.0
23	36	0	0	-0.7466329932	2.352698326	-26.61235619	1.0
[LeftHandPinky3]
21	21.14200211	0	0	-0.2664631903	2.138032198	-13.04752636	1.0
22	21.14200211	0	0	-0.2524560988	2.094151258	-12.58808613	1.0
23	21.14200211	0	0	-0.2472303361	2.077500105	-12.41391945	1.0
[LeftHandPinky4]
21	19.75699997	0	0	0	0	0	1.0
22	19.75699997	0	0	0	0	0	1.0
23	19.75699997	0	0	0	0	0	1.0
[RightShoulder]
21	-45.70000076	109.4620056	-26.28000069	3.501158953	-4.321762562	11.9343996	1.0
22	-45.70000076	109.4620056	-26.28000069	3.605531454	-3.448437691	12.23420715	1.0
23	-45.70000076	109.4620056	-26.28000069	3.678037167	-2.924449682	12.64471245	1.0
[RightArm]
21	-105.9280014	-5.248000145	-22.32099915	14.56281185	-16.60721779	61.87816238	1.0
22	-105.9280014	-5.248000145	-22.32099915	14.49261284	-10.41245174	62.7297821	1.0
23	-105.9280014	-5.248000145	-22.32099915	15.14839554	-2.645913124	64.26779175	1.0
[RightForeArm]
21	-278.414978	0	0	1.521211288e-05	21.7640934	1.074055126e-05	1.0
22	-278.414978	0	0	2.099796802e-06	19.91038895	-1.333128807e-06	1.0
23	-278.414978	0	0	-3.18606476e-06	17.26912689	-1.733150566e-05	1.0
[RightHand]
21	-283.2879944	0	0.0009999999311	21.69110489	-12.27514267	14.06719303	1.0
22	-283.2879944	0	0.0009999999311	29.1801281	-14.60764027	16.90170288	1.0
23	-283.2879944	0	0.0009999999311	38.30617905	-12.62551403	16.2377224	1.0
[RightHandPinky1]
21	-80.76699829	-4.885000229	-38.06000137	-5.781490803	-16.1107769	39.73775101	1.0
22	-80.76699829	-4.885000229	-38.06000137	-6.044207573	-15.83640385	42.42670441	1.0
23	-80.76699829	-4.885000229	-38.06000137	-6.337976933	-15.5988636	45.16237259	1.0
[RightHandPinky2]
21	-36	0	0.0009999999311	-0.7630316019	-2.380793095	26.95746994	1.0
22	-36	0	0.0009999999311	-0.7506337762	-2.359306812	26.70896339	1.0
23	-36	0	0.0009999999311	-0.7458342314	-2.35090661	26.61236	1.0
[RightHandPinky3]
21	-21.14200211	0	0	-0.4598751366	0.7696540952	14.37041283	1.0
22	-21.14200211	0	0	-0.4517447352	0.7930461764	14.12385559	1.0
23	-21.14200211	0	0	-0.4485448003	0.802382648	14.0256176	1.0
[RightHandPinky4]
21	-19.75699997	0	0	0	0	0	1.0
22	-19.75699997	0	0	0	0	0	1.0
23	-19.75699997	0	0	0	0	0	1.0
[RightHandRing1]
21	-91.03599548	-0.4390000105	-18.65100098	-3.777292728	-13.3893137	31.9807682	1.0
22	-91.03599548	-0.4390000105	-18.65100098	-4.208206177	-13.16772556	35.22829819	1.0
23	-91.03599548	-0.4390000105	-18.65100098	-4.677564144	-12.69357204	38.8080101	1.0
[RightHandRing2]
21	-31.54000092	0	0	-0.2411433607	-2.219691038	19.17882729	1.0
22	-31.54000092	0	0	-0.2363511622	-2.20396018	19.01273155	1.0
23	-31.54000092	0	0	-0.2358964831	-2.202441216	18.99666405	1.0
[RightHandRing3]
21	-29.37700081	0	0	-0.07177206129	0.4559518099	14.08025646	1.0
22	-29.37700081	0	0	-0.06935283542	0.4724361598	13.91323948	1.0
23	-29.37700081	0	0	-0.06927751005	0.4729810059	13.90757275	1.0
[RightHandRing4]
21	-26.47500038	0	0	0	0	0	1.0
22	-26.47500038	0	0	0	0	0	1.0
23	-26.47500038	0	0	0	0	0	1.0
[RightHandMiddle1]
21	-95.32500458	0	0	-2.09778142	-6.948105812	20.73581314	1.0
22	-95.32500458	0	0	-2.676712275	-6.926454067	25.26677513	1.0
23	-95.32500458	0	0	-3.292606592	-6.805974007	29.94657898	1.0
[RightHandMiddle2]
21	-36.98199844	0	0	-0.4478945434	-2.372648478	16.06099701	1.0
22	-36.98199844	0	0	-0.4464297295	-2.369550467	16.02734756	1.0
23	-36.98199844	0	0	-0.4499199092	-2.376928806	16.10788155	1.0
[RightHandMiddle3]
21	-29.50900078	0	0	-0.2016368359	-1.498383641	14.01772404	1.0
22	-29.50900078	0	0	-0.2007247061	-1.495001912	13.98245335	1.0
23	-29.50900078	0	0	-0.2029661685	-1.503267288	14.06851006	1.0
[RightHandMiddle4]
21	-28.3390007	0	0.0009999999311	0	0	0	1.0
22	-28.3390007	0	0.0009999999311	0	0	0	1.0
23	-28.3390007	0	0.0009999999311	0	0	0	1.0
[RightHandIndex1]
21	-91.08300018	-5.167999744	22.60099792	-0.2159793973	-2.128268242	8.789868355	1.0
22	-91.08300018	-5.167999744	22.60099792	-0.6101936102	-2.26564765	12.51588154	1.0
23	-91.08300018	-5.167999744	22.60099792	-1.03181684	-2.306828737	16.47793961	1.0
[RightHandIndex2]
21	-36.76399994	0	0	-0.1843493432	-1.710289001	9.256279945	1.0
22	-36.76399994	0	0	-0.1692766994	-1.660351872	8.74375248	1.0
23	-36.76399994	0	0	-0.1586875468	-1.624270082	8.37402153	1.0
[RightHandIndex3]
21	-28.83100128	0	0	-0.2422333658	-0.1725032032	13.99864292	1.0
22	-28.83100128	0	0	-0.229862228	-0.1218628213	13.48023891	1.0
23	-28.83100128	0	0	-0.2216453105	-0.08714253455	13.12565708	1.0
[RightHandIndex4]
21	-23.92700005	0	0	0	0	0	1.0
22	-23.92700005	0	0	0	0	0	1.0
23	-23.92700005	0	0	0	0	0	1.0
[RightHandThumb1]
21	-24.64799881	-15.72700024	26.82600021	9.08171463	-4.223015785	-0.3908413947	1.0
22	-24.64799881	-15.72700024	26.82600021	8.397625923	-2.63902092	-0.2901201248	1.0
23	-24.64799881	-15.72700024	26.82600021	7.329998493	-0.9027682543	-0.7743974924	1.0
[RightHandThumb2]
21	-32.29800034	-18.64699936	18.64699936	3.65311265	-13.48897934	-12.26199627	1.0
22	-32.29800034	-18.64699936	18.64699936	3.50917387	-15.64269638	-11.67932892	1.0
23	-32.29800034	-18.64699936	18.64699936	4.032636166	-18.34222412	-10.99038792	1.0
[RightHandThumb3]
21	-26.52600098	-15.31399918	15.31399918	3.024471283	-12.5701704	0.2007398307	1.0
22	-26.52600098	-15.31399918	15.31399918	2.886227131	-12.16785717	0.09228541702	1.0
23	-26.52600098	-15.31399918	15.31399918	2.755785465	-11.7879734	-0.01056628954	1.0
[RightHandThumb4]
21	-19.54599953	-11.28499985	11.28499985	0	0	0	1.0
22	-19.54599953	-11.28499985	11.28499985	0	0	0	1.0
23	-19.54599953	-11.28499985	11.28499985	0	0	0	1.0
[LeftUpLeg]
21	82.07800293	-67.51699829	-15.99599934	10.54739666	10.49992752	4.52946043	1.0
22	82.07800293	-67.51699829	-15.99599934	-0.1314851344	8.746619225	4.647827625	1.0
23	82.07800293	-67.51699829	-15.99599934	-11.45056343	6.179641247	4.398424149	1.0
[LeftLeg]
21	0	-443.7049866	2.845999956	41.90087128	-4.281702995	6.422979832	1.0
22	0	-443.7049866	2.845999956	55.60644913	-1.654108405	9.911179543	1.0
23	0	-443.7049866	2.845999956	63.2886734	-0.5212198496	11.58987713	1.0
[LeftFoot]
21	0	-444.2789917	-29.8219986	16.43012238	3.671976328	-9.875247002	1.0
22	0	-444.2789917	-29.8219986	17.24987221	4.933530807	-8.345909119	1.0
23	0	-444.2789917	-29.8219986	9.027651787	6.425242901	-4.558302879	1.0
[LeftToeBase]
21	0	-87.28699493	107.1060028	-8.803704262	-1.717835949e-05	-8.461915058e-06	1.0
22	0	-87.28699493	107.1060028	-2.655483007	4.123238341e-06	2.180938282e-06	1.0
23	0	-87.28699493	107.1060028	-2.662997246	3.646911182e-06	1.211686538e-07	1.0
[RightUpLeg]
21	-82.07800293	-67.51699829	-15.99599934	-27.54908752	4.865588665	12.55552959	1.0
22	-82.07800293	-67.51699829	-15.99599934	-21.95565033	4.442125797	13.74868107	1.0
23	-82.07800293	-67.51699829	-15.99599934	-14.88688469	2.896560907	14.19753456	1.0
[RightLeg]
21	0	-443.7049866	2.861999989	24.95756721	-4.195175171	-5.10574007	1.0
22	0	-443.7049866	2.861999989	23.17699242	-4.356715679	-4.85362339	1.0
23	0	-443.7049866	2.861999989	16.8432312	-4.642844677	-4.501086712	1.0
[RightFoot]
21	0	-444.2770081	-29.83799934	2.32186842	-7.120415211	-6.464654922	1.0
22	0	-444.2770081	-29.83799934	-1.539793372	-7.188257217	-5.335550308	1.0
23	0	-444.2770081	-29.83799934	-3.33246088	-6.683717251	-4.608394623	1.0
[RightToeBase]
21	0	-87.28699493	107.1060028	-3.286628962	-3.901769014e-05	-9.531121492e-08	1.0
22	0	-87.28699493	107.1060028	-1.797733903	-2.290980228e-05	-3.000996287e-07	1.0
23	0	-87.28699493	107.1060028	-1.680377841	1.1549193e-05	5.202448847e-06	1.0
[EndOfFile]
